# xmcd
#
# Track frame offsets:
#	150
#	20410
#	40807
#	60981
#	74857
#	115194
#	132778
#	160952
#	181447
#	208674
#	229947
#	245174
#	263620
#	283007
#	299322
#	317878
#
# Disc length: 4394
#
# Revision: 1
# Processed by: cddbd v1.5.1PL0 Copyright (c) Steve Scherf et al.
# Submitted via: CDex 1.40Beta8
# Normalized: r0:DSETVAR1,TDELIM( - )
#
DISCID=f5112810
DTITLE=Various Artist - Blues Planet - The Best Of Blues
DYEAR=1900
DGENRE=Blues
TTITLE0=Buddy Guy - She's Out There Somewhere
TTITLE1=Billy Boy Arnold - Whiskey, Beer and Reefer
TTITLE2=Otis Rush - You Got Me Running
TTITLE3=Walter "Shakey" Horton - Big Walter's Boogie
TTITLE4=Jimmy Dawkins - Going Down
TTITLE5=Pinetop Perkins - Hi-Heel Sneakers
TTITLE6=Byther Smith - Play The Blues In Paris
TTITLE7=Luther Allison - Nobody But You
TTITLE8=Son Seals - Now That I'm Down
TTITLE9=Koko Taylor - Mother Nature
TTITLE10=B.B.King - Summer In The City
TTITLE11=John Lee Hooker - Don't Look Back
TTITLE12=John Mayall - Stone Gold Deal
TTITLE13=Peter Green - You Won't See Me Anymore
TTITLE14=Chris Rea - Miss Your Kiss
TTITLE15=Cotton, Wells, Bell, Branch - Hit Man
EXTD=ID3G: 0
EXTT0=
EXTT1=
EXTT2=
EXTT3=
EXTT4=
EXTT5=
EXTT6=
EXTT7=
EXTT8=
EXTT9=
EXTT10=
EXTT11=
EXTT12=
EXTT13=
EXTT14=
EXTT15=
PLAYORDER=
